<svg xmlns="http://www.w3.org/2000/svg" width="15.2" height="15.2" viewBox="0 0 15.2 15.2">
  <g id="fo-help" transform="translate(-1.4 -1.4)">
    <circle id="타원" cx="7" cy="7" r="7" transform="translate(2 2)" fill="none" stroke="#dea83b" stroke-linecap="square" stroke-linejoin="round" stroke-width="1.2"/>
    <path id="패스" d="M2.277-3.778a1.734,1.734,0,0,1,.044-.429,1.016,1.016,0,0,1,.154-.36,1.438,1.438,0,0,1,.286-.32,2.535,2.535,0,0,1,.44-.3c.154-.08.3-.17.429-.25a1.749,1.749,0,0,0,.341-.27,1.435,1.435,0,0,0,.22-.32,1.237,1.237,0,0,0,.077-.439.912.912,0,0,0-.363-.8,1.749,1.749,0,0,0-.968-.25,1.551,1.551,0,0,0-.561.09A1.24,1.24,0,0,0,2-7.2a1.3,1.3,0,0,0-.242.28,1.092,1.092,0,0,0-.132.26l-1.023-.4a1.614,1.614,0,0,1,.187-.409,1.663,1.663,0,0,1,.429-.469,2.523,2.523,0,0,1,.737-.39,3.326,3.326,0,0,1,1.089-.16,3.667,3.667,0,0,1,1.1.15,2.538,2.538,0,0,1,.781.409,1.89,1.89,0,0,1,.462.619,2.112,2.112,0,0,1,.154.789,1.923,1.923,0,0,1-.143.749,2.565,2.565,0,0,1-.374.569,2.908,2.908,0,0,1-.473.409,4.683,4.683,0,0,1-.5.29,1.493,1.493,0,0,0-.495.35.756.756,0,0,0-.143.489v1.079H2.277ZM2.255-.492H3.52V-1.611H2.255Z" transform="translate(6 13.492)" fill="#dea83b"/>
  </g>
</svg>
