<svg xmlns="http://www.w3.org/2000/svg" width="9.4" height="8.2" viewBox="0 0 9.4 8.2">
  <path id="_0xe952" data-name="0xe952" d="M.62-7.36a3.918,3.918,0,0,1,2.89,1.2A3.968,3.968,0,0,1,4.7-3.26,3.968,3.968,0,0,1,3.51-.36,3.918,3.918,0,0,1,.62.84,3.922,3.922,0,0,1-1.9-.04l.7-.74a3.068,3.068,0,0,0,1.82.6,2.946,2.946,0,0,0,2.16-.9,2.969,2.969,0,0,0,.9-2.18,2.969,2.969,0,0,0-.9-2.18,2.934,2.934,0,0,0-2.15-.9,2.985,2.985,0,0,0-2.15.87,2.9,2.9,0,0,0-.92,2.11h1.42L-2.86-1.32-4.7-3.36h1.24A3.877,3.877,0,0,1-2.24-6.19,3.955,3.955,0,0,1,.62-7.36Z" transform="translate(4.7 7.36)" fill="#fff"/>
</svg>
