<svg xmlns="http://www.w3.org/2000/svg" width="24.093" height="24.093" viewBox="0 0 24.093 24.093">
  <path id="_0xff07" data-name="0xff07" d="M13.944-8.4l9.648-9.672a1.355,1.355,0,0,0,.384-.96,1.293,1.293,0,0,0-.4-.948,1.293,1.293,0,0,0-.948-.4,1.355,1.355,0,0,0-.96.384L12-10.344,2.328-19.992a1.355,1.355,0,0,0-.96-.384,1.293,1.293,0,0,0-.948.4,1.293,1.293,0,0,0-.4.948,1.355,1.355,0,0,0,.384.96L10.056-8.4.408,1.272a1.355,1.355,0,0,0-.384.96,1.293,1.293,0,0,0,.4.948,1.293,1.293,0,0,0,.948.4,1.355,1.355,0,0,0,.96-.384L12-6.456l9.672,9.648a1.308,1.308,0,0,0,.612.444,1.391,1.391,0,0,0,.768.048,1.317,1.317,0,0,0,1.032-1.032,1.391,1.391,0,0,0-.048-.768,1.308,1.308,0,0,0-.444-.612Z" transform="translate(-0.024 20.376)" fill="#101010" opacity="0.8"/>
</svg>
