<svg xmlns="http://www.w3.org/2000/svg" width="13.52" height="16.796" viewBox="0 0 13.52 16.796">
  <path id="_0xea59" data-name="0xea59" d="M13.13-9a1.307,1.307,0,0,0,.39-.962,1.307,1.307,0,0,0-.39-.962L6.76-17.3.39-10.928A1.307,1.307,0,0,0,0-9.966,1.307,1.307,0,0,0,.39-9a1.307,1.307,0,0,0,.962.39A1.307,1.307,0,0,0,2.314-9L5.434-12.1v10.27a1.277,1.277,0,0,0,.39.936A1.277,1.277,0,0,0,6.76-.5a1.364,1.364,0,0,0,.962-.39,1.238,1.238,0,0,0,.416-.936V-12.1L11.258-9a1.277,1.277,0,0,0,.936.39A1.277,1.277,0,0,0,13.13-9Z" transform="translate(0 17.298)" fill="#fff"/>
</svg>
