<svg xmlns="http://www.w3.org/2000/svg" width="18.932" height="21.121" viewBox="0 0 18.932 21.121">
  <g id="substitute" transform="translate(-10.832 -11.971)">
    <g id="그룹_2046" data-name="그룹 2046" transform="translate(-1 -2.122)">
      <path id="합치기_28" data-name="합치기 28" d="M14.213,9.4a1.5,1.5,0,0,1,0-2.121l1.2-1.2H3.5a1.5,1.5,0,1,1,0-3H15.008l-.8-.8A1.5,1.5,0,0,1,16.334.161l4.6,4.6-.024.025.024.024-4.6,4.6a1.5,1.5,0,0,1-2.121,0Z" transform="translate(32.763 23.935) rotate(180)" fill="#fff"/>
    </g>
    <g id="그룹_2050" data-name="그룹 2050" transform="translate(8.832 22.971)">
      <path id="합치기_28-2" data-name="합치기 28" d="M14.214,9.681a1.5,1.5,0,0,1,0-2.121l.8-.8H3.5a1.5,1.5,0,1,1,0-3H15.417l-1.2-1.2A1.5,1.5,0,0,1,16.335.439l4.6,4.6-.025.024.025.025-4.6,4.6a1.5,1.5,0,0,1-2.121,0Z" transform="translate(0 0)" fill="#fff"/>
    </g>
  </g>
</svg>
