<svg xmlns="http://www.w3.org/2000/svg" width="11.999" height="11.998" viewBox="0 0 11.999 11.998">
  <g id="disk" transform="translate(-33.999 -18.002)">
    <g id="빼기_1" data-name="빼기 1" transform="translate(-4492 21348.346)" fill="none" stroke-linecap="round">
      <path d="M4537.5-21318.346h-11a.5.5,0,0,1-.5-.5v-11a.5.5,0,0,1,.5-.5h7.7l3.792,3.535v7.961A.5.5,0,0,1,4537.5-21318.346Z" stroke="none"/>
      <path d="M 4536.99755859375 -21319.345703125 L 4536.99755859375 -21326.373046875 L 4533.81201171875 -21329.34375 L 4526.9990234375 -21329.34375 L 4526.9990234375 -21319.345703125 L 4536.99755859375 -21319.345703125 M 4537.49951171875 -21318.345703125 L 4526.501953125 -21318.345703125 C 4526.224609375 -21318.345703125 4525.9990234375 -21318.572265625 4525.9990234375 -21318.84765625 L 4525.9990234375 -21329.845703125 C 4525.9990234375 -21330.119140625 4526.224609375 -21330.34375 4526.501953125 -21330.34375 L 4534.2060546875 -21330.34375 L 4537.99755859375 -21326.80859375 L 4537.99755859375 -21318.84765625 C 4537.99755859375 -21318.56640625 4537.77880859375 -21318.345703125 4537.49951171875 -21318.345703125 Z" stroke="none" fill="#fff"/>
    </g>
    <g id="사각형_3089" data-name="사각형 3089" transform="translate(37 24)" fill="none" stroke="#fff" stroke-width="1">
      <rect width="6" height="6" rx="0.5" stroke="none"/>
      <rect x="0.5" y="0.5" width="5" height="5" fill="none"/>
    </g>
  </g>
</svg>
