<svg xmlns="http://www.w3.org/2000/svg" width="16.796" height="13.52" viewBox="0 0 16.796 13.52">
  <path id="_0xea58" data-name="0xea58" d="M15.47-7.522a1.238,1.238,0,0,0,.936-.416A1.364,1.364,0,0,0,16.8-8.9a1.364,1.364,0,0,0-.39-.962,1.157,1.157,0,0,0-.936-.39H5.2l3.094-3.094a1.307,1.307,0,0,0,.39-.962,1.307,1.307,0,0,0-.39-.962,1.307,1.307,0,0,0-.962-.39,1.307,1.307,0,0,0-.962.39L0-8.9,6.37-2.53a1.307,1.307,0,0,0,.962.39,1.307,1.307,0,0,0,.962-.39,1.307,1.307,0,0,0,.39-.962,1.307,1.307,0,0,0-.39-.962L5.2-7.522Z" transform="translate(0 15.66)" fill="#fff"/>
</svg>
