<svg xmlns="http://www.w3.org/2000/svg" width="14.82" height="14.853" viewBox="0 0 14.82 14.853">
  <path id="_0xe8f9" data-name="0xe8f9" d="M13.642-12.92a4.387,4.387,0,0,1,.893,1.216,2.445,2.445,0,0,1,.285.912v.3L10.032-5.7,4.522-.228,0,.76.95-3.8,6.46-9.272l4.788-4.788Q12.274-14.288,13.642-12.92ZM4.256-.76l.456-.456A2.851,2.851,0,0,0,3.724-3a4.012,4.012,0,0,0-.855-.665A1.544,1.544,0,0,0,2.2-3.914l-.266-.038L1.52-3.5l-.342,1.52a4.119,4.119,0,0,1,.874.646,3.573,3.573,0,0,1,.684.912Z" transform="translate(0 14.093)" fill="#fff"/>
</svg>
