<svg xmlns="http://www.w3.org/2000/svg" width="16.797" height="13.52" viewBox="0 0 16.797 13.52">
  <path id="_0xea58" data-name="0xea58" d="M8.528-2.53a1.277,1.277,0,0,0,.936.39,1.364,1.364,0,0,0,.962-.39L16.8-8.9l-6.37-6.37a1.292,1.292,0,0,0-.949-.39,1.292,1.292,0,0,0-.949.39,1.307,1.307,0,0,0-.39.962,1.307,1.307,0,0,0,.39.962l3.12,3.094H1.378a1.307,1.307,0,0,0-.962.39A1.4,1.4,0,0,0,0-8.9a1.157,1.157,0,0,0,.416.962,1.548,1.548,0,0,0,.962.416h10.27L8.528-4.454a1.307,1.307,0,0,0-.39.962A1.307,1.307,0,0,0,8.528-2.53Z" transform="translate(0.001 15.66)" fill="#fff"/>
</svg>
