<svg xmlns="http://www.w3.org/2000/svg" width="7.798" height="4.55" viewBox="0 0 7.798 4.55">
  <path id="_0xe93a" data-name="0xe93a" d="M-.588-6.146a.212.212,0,0,1-.084.168l-3.64,3.654a.246.246,0,0,1-.182.07.2.2,0,0,1-.168-.07L-8.3-5.978a.212.212,0,0,1-.084-.168A.254.254,0,0,1-8.3-6.328l.392-.392A.212.212,0,0,1-7.742-6.8a.254.254,0,0,1,.182.084l3.066,3.066,3.08-3.066A.226.226,0,0,1-1.232-6.8a.188.188,0,0,1,.168.084l.392.392A.226.226,0,0,1-.588-6.146Z" transform="translate(8.386 6.804)" fill="#fff"/>
</svg>
