<svg xmlns="http://www.w3.org/2000/svg" width="24" height="18" viewBox="0 0 24 18">
  <g id="change" transform="translate(0 -2)">
    <g id="하단">
      <g id="합치기" transform="translate(24 20) rotate(180)" fill="#fff" stroke-linecap="round">
        <path d="M 4.849400043487549 7.544608116149902 L 3.176350116729736 6.150400161743164 L 4.151120185852051 6.150400161743164 L 4.150599956512451 4.999879837036133 L 4.149700164794922 2.999179840087891 C 4.149700164794922 1.979769945144653 4.979470252990723 1.149999976158142 5.99940013885498 1.149999976158142 L 17.99909973144531 1.149999976158142 C 19.01902961730957 1.149999976158142 19.84880065917969 1.979769945144653 19.84880065917969 2.999699831008911 L 19.84880065917969 3.85095477104187 L 19.14484024047852 3.850743532180786 C 19.06766510009766 2.734907388687134 18.13520050048828 1.850599884986877 17.00010108947754 1.850599884986877 L 7.000200271606445 1.850599884986877 C 5.865171432495117 1.850599884986877 4.932762622833252 2.734664440155029 4.855484485626221 3.850399971008301 L 4.850300312042236 3.850399971008301 L 4.849400043487549 5.000400066375732 L 4.849400043487549 7.544608116149902 Z" stroke="none"/>
        <path d="M 5.99940013885498 9.999899864196777 L 1.388549719649745e-07 5.000400066375732 L 5.99940013885498 5.000400066375732 L 5.99940013885498 9.999899864196777 Z M 20.99880027770996 5.001299858093262 L 18 5.000400066375732 L 18 4.000499725341797 C 18 3.448799848556519 17.55179977416992 3.00059986114502 17.00010108947754 3.00059986114502 L 7.000200271606445 3.00059986114502 C 6.448500156402588 3.00059986114502 6.00029993057251 3.448799848556519 6.00029993057251 4.000499725341797 L 5.99940013885498 5.000400066375732 L 3.000600099563599 5.000400066375732 L 2.99970006942749 2.999699831008911 C 2.99970006942749 1.345499873161316 4.345200061798096 -6.790160966829717e-08 5.99940013885498 -6.790160966829717e-08 L 17.99909973144531 -6.790160966829717e-08 C 19.65329933166504 -6.790160966829717e-08 20.99880027770996 1.345499873161316 20.99880027770996 2.999699831008911 L 20.99880027770996 5.001299858093262 Z" stroke="none" fill="#fff"/>
      </g>
      <ellipse id="타원" cx="1.5" cy="1" rx="1.5" ry="1" transform="translate(3 14)" fill="#fff"/>
    </g>
    <g id="상단" transform="translate(0 2)">
      <g id="합치기-2" data-name="합치기" transform="translate(0 0)" fill="#fff" stroke-linecap="round">
        <path d="M 4.849400043487549 7.545218944549561 L 3.175919055938721 6.150400161743164 L 4.151120185852051 6.150400161743164 L 4.150599956512451 4.999879837036133 L 4.149700164794922 3.000080108642578 C 4.149700164794922 1.980180025100708 4.979470252990723 1.150000095367432 5.99940013885498 1.150000095367432 L 17.99909973144531 1.150000095367432 C 19.01902961730957 1.150000095367432 19.84880065917969 1.980180025100708 19.84880065917969 3.000600099563599 L 19.84880065917969 3.85095477104187 L 19.1447811126709 3.850743532180786 C 19.06719207763672 2.734840154647827 18.13491249084473 1.850600123405457 17.00010108947754 1.850600123405457 L 7.000200271606445 1.850600123405457 C 5.865460872650146 1.850600123405457 4.933237075805664 2.734597206115723 4.855542182922363 3.850399971008301 L 4.850300312042236 3.850399971008301 L 4.849400043487549 5.000400066375732 L 4.849400043487549 7.545218944549561 Z" stroke="none"/>
        <path d="M 5.99940013885498 0 L 17.99909973144531 0 C 19.65329933166504 0 20.99880027770996 1.345499992370605 20.99880027770996 3.00059986114502 L 20.99790000915527 5.001299858093262 L 18 5.000400066375732 L 18 4.001399993896484 C 18 3.448800086975098 17.55179977416992 3.00059986114502 17.00009918212891 3.00059986114502 L 7.000200271606445 3.00059986114502 C 6.44849967956543 3.00059986114502 6.000300407409668 3.448800086975098 6.000300407409668 4.001399993896484 L 6.000300407409668 5.000400066375732 L 3.000600814819336 5.000400066375732 L 2.999700546264648 3.00059986114502 C 2.999700546264648 1.345499992370605 4.345199584960938 0 5.99940013885498 0 Z M 0 5.000400066375732 L 5.99940013885498 5.000400066375732 L 5.99940013885498 10.00080013275146 L 0 5.000400066375732 Z" stroke="none" fill="#fff"/>
      </g>
      <ellipse id="타원-2" data-name="타원" cx="1.5" cy="1" rx="1.5" ry="1" transform="translate(18 4)" fill="#fff"/>
    </g>
  </g>
</svg>
