<svg xmlns="http://www.w3.org/2000/svg" width="13.52" height="16.796" viewBox="0 0 13.52 16.796">
  <path id="_0xea58" data-name="0xea58" d="M13.13-9a1.307,1.307,0,0,1,.39.962,1.307,1.307,0,0,1-.39.962L6.76-.7.39-7.072A1.307,1.307,0,0,1,0-8.034,1.307,1.307,0,0,1,.39-9a1.307,1.307,0,0,1,.962-.39A1.307,1.307,0,0,1,2.314-9L5.434-5.9v-10.27a1.277,1.277,0,0,1,.39-.936,1.277,1.277,0,0,1,.936-.39,1.364,1.364,0,0,1,.962.39,1.238,1.238,0,0,1,.416.936V-5.9L11.258-9a1.277,1.277,0,0,1,.936-.39A1.277,1.277,0,0,1,13.13-9Z" transform="translate(0 17.498)" fill="#fff"/>
</svg>
