<svg xmlns="http://www.w3.org/2000/svg" width="12.11" height="10.64" viewBox="0 0 12.11 10.64">
  <path id="_0xebcf" data-name="0xebcf" d="M4.354-7.056H11.2a.866.866,0,0,1,.644.273.884.884,0,0,1,.266.637V-.49a.884.884,0,0,1-.266.637A.866.866,0,0,1,11.2.42H4.354A.873.873,0,0,1,3.717.147.873.873,0,0,1,3.444-.49V-6.146a.873.873,0,0,1,.273-.637A.873.873,0,0,1,4.354-7.056ZM10.71-5.74H4.844V-.9H10.71ZM8.666-8.274H7.252V-8.89H1.414v4.7h.812v1.33H.924a.889.889,0,0,1-.651-.273A.873.873,0,0,1,0-3.766V-9.3a.889.889,0,0,1,.273-.651.889.889,0,0,1,.651-.273H7.756a.866.866,0,0,1,.644.273.9.9,0,0,1,.266.651Z" transform="translate(0 10.22)" fill="#2a2a2a"/>
</svg>
