<svg xmlns="http://www.w3.org/2000/svg" width="8.998" height="10.994" viewBox="0 0 8.998 10.994">
  <path id="_0xff96" data-name="0xff96" d="M7-2.354a1.308,1.308,0,0,0-.44.055L5.5-4.1v-1L6.952-7.546A.982.982,0,0,0,7.1-7.975.859.859,0,0,0,7.051-8.4l-.352-.9q-.165-.077-.253,0L4.5-5.9l-2-3.41A.126.126,0,0,0,2.4-9.339a.169.169,0,0,0-.1.033l-.352.9a.8.8,0,0,0-.044.423,1.239,1.239,0,0,0,.143.435L3.5-5.049v.9L2.453-2.3A1.413,1.413,0,0,0,2-2.354a1.952,1.952,0,0,0-1,.27,2,2,0,0,0-.732.732,1.952,1.952,0,0,0-.27,1,1.952,1.952,0,0,0,.27,1A2,2,0,0,0,1,1.381a1.952,1.952,0,0,0,1,.27,1.952,1.952,0,0,0,1-.27A2,2,0,0,0,3.735.649a1.952,1.952,0,0,0,.27-1,1.849,1.849,0,0,0-.132-.693A2.08,2.08,0,0,0,3.5-1.65l.7-1.2h.55l.7,1.2a2.339,2.339,0,0,0-.319.594,1.993,1.993,0,0,0-.132.7,1.952,1.952,0,0,0,.27,1A2.013,2.013,0,0,0,6,1.381a1.923,1.923,0,0,0,1,.27,1.952,1.952,0,0,0,1-.27A2,2,0,0,0,8.729.649,1.952,1.952,0,0,0,9-.352a1.952,1.952,0,0,0-.269-1A2,2,0,0,0,8-2.085,1.952,1.952,0,0,0,7-2.354ZM4-4.554a.484.484,0,0,1,.137-.358A.484.484,0,0,1,4.5-5.049a.5.5,0,0,1,.363.137.48.48,0,0,1,.143.363.48.48,0,0,1-.143.363.5.5,0,0,1-.363.137.484.484,0,0,1-.358-.137A.5.5,0,0,1,4-4.554ZM2,.649a.962.962,0,0,1-.7-.3A.968.968,0,0,1,1-.358a.95.95,0,0,1,.3-.7.977.977,0,0,1,.71-.291.959.959,0,0,1,.7.291A.959.959,0,0,1,3-.358a.977.977,0,0,1-.291.71A.957.957,0,0,1,2,.649ZM7,.649A.953.953,0,0,1,6.3.358a.966.966,0,0,1-.292-.71.966.966,0,0,1,.292-.71A.959.959,0,0,1,7-1.353a.959.959,0,0,1,.7.291A.959.959,0,0,1,8-.358a.977.977,0,0,1-.292.71A.957.957,0,0,1,7,.649Z" transform="translate(0 9.344)" fill="#fff"/>
</svg>
