<svg xmlns="http://www.w3.org/2000/svg" width="22" height="22" viewBox="0 0 22 22">
  <path id="_0xff41" data-name="0xff41" d="M21.736-8.36,18.5-11.594a.944.944,0,0,0-.66-.264.906.906,0,0,0-.649.264.864.864,0,0,0-.275.649.849.849,0,0,0,.286.649l1.672,1.672H11.924v-6.952L13.6-13.9a.849.849,0,0,0,.649.286.864.864,0,0,0,.649-.275.906.906,0,0,0,.264-.649.944.944,0,0,0-.264-.66L11.66-18.436A.944.944,0,0,0,11-18.7a.869.869,0,0,0-.638.264L7.106-15.2a.944.944,0,0,0-.264.66.869.869,0,0,0,.264.638.922.922,0,0,0,.649.275A.815.815,0,0,0,8.4-13.9l1.672-1.672v6.952H3.124L4.8-10.3a.849.849,0,0,0,.286-.649.849.849,0,0,0-.286-.649.931.931,0,0,0-.649-.264.857.857,0,0,0-.627.264L.264-8.36A.944.944,0,0,0,0-7.7a.869.869,0,0,0,.264.638L3.52-3.806a.869.869,0,0,0,.638.264.888.888,0,0,0,.649-.275.888.888,0,0,0,.275-.649A.837.837,0,0,0,4.8-5.1L3.124-6.776h6.952V.176L8.4-1.5a.837.837,0,0,0-.638-.286.888.888,0,0,0-.649.275.888.888,0,0,0-.275.649.869.869,0,0,0,.264.638l3.256,3.256A.869.869,0,0,0,11,3.3a.944.944,0,0,0,.66-.264L14.894-.22a.869.869,0,0,0,.264-.638.906.906,0,0,0-.264-.649.864.864,0,0,0-.649-.275A.849.849,0,0,0,13.6-1.5L11.924.176V-6.776h6.952L17.2-5.1a.837.837,0,0,0-.286.638.888.888,0,0,0,.275.649.888.888,0,0,0,.649.275.944.944,0,0,0,.66-.264l3.234-3.256A.869.869,0,0,0,22-7.7.944.944,0,0,0,21.736-8.36Z" transform="translate(0 18.7)" fill="#16181e"/>
</svg>
