<svg xmlns="http://www.w3.org/2000/svg" width="12.521" height="19" viewBox="0 0 12.521 19">
  <path id="_0xff59" data-name="0xff59" d="M3.8-13.908H8.721v1.33H3.8Zm8.721-.456V1.064A1.721,1.721,0,0,1,12,2.328a1.721,1.721,0,0,1-1.264.523H1.786A1.721,1.721,0,0,1,.523,2.328,1.721,1.721,0,0,1,0,1.064V-14.364a1.721,1.721,0,0,1,.523-1.264,1.721,1.721,0,0,1,1.264-.522h8.949A1.721,1.721,0,0,1,12-15.628,1.721,1.721,0,0,1,12.521-14.364ZM11.172-.057H1.349V.608a.858.858,0,0,0,.266.627.858.858,0,0,0,.627.266h8.037a.849.849,0,0,0,.637-.266.873.873,0,0,0,.256-.627Zm0-13.851a.864.864,0,0,0-.256-.636.864.864,0,0,0-.637-.257H2.242a.874.874,0,0,0-.627.257.849.849,0,0,0-.266.636v12.5h9.823Z" transform="translate(0 16.15)" fill="#5c5c5c"/>
</svg>
