<svg xmlns="http://www.w3.org/2000/svg" width="14.934" height="16.302" viewBox="0 0 14.934 16.302">
  <path id="_0xe85d" data-name="0xe85d" d="M5.434-8.341v6.1A.334.334,0,0,1,5.339-2a.334.334,0,0,1-.247.1H4.408A.334.334,0,0,1,4.161-2a.334.334,0,0,1-.095-.247v-6.1a.334.334,0,0,1,.095-.247.334.334,0,0,1,.247-.1h.684a.334.334,0,0,1,.247.1A.334.334,0,0,1,5.434-8.341Zm2.717,0v6.1A.334.334,0,0,1,8.056-2a.334.334,0,0,1-.247.1H7.125A.334.334,0,0,1,6.878-2a.334.334,0,0,1-.095-.247v-6.1a.334.334,0,0,1,.095-.247.334.334,0,0,1,.247-.1h.684a.334.334,0,0,1,.247.1A.334.334,0,0,1,8.151-8.341Zm2.7,0v6.1a.334.334,0,0,1-.1.247.311.311,0,0,1-.228.1H9.842A.334.334,0,0,1,9.6-2a.334.334,0,0,1-.1-.247v-6.1a.334.334,0,0,1,.1-.247.334.334,0,0,1,.247-.1h.684a.311.311,0,0,1,.228.1A.334.334,0,0,1,10.849-8.341ZM12.217-.665V-10.716h-9.5V-.665a1.116,1.116,0,0,0,.076.418,1.153,1.153,0,0,0,.152.285q.076.095.114.095h8.816q.038,0,.114-.095a1.153,1.153,0,0,0,.152-.285A1.116,1.116,0,0,0,12.217-.665ZM5.092-12.084h4.75l-.513-1.235a.294.294,0,0,0-.171-.114H5.8a.3.3,0,0,0-.19.114Zm9.842.342v.684a.334.334,0,0,1-.095.247.334.334,0,0,1-.247.095H13.566V-.665a2.431,2.431,0,0,1-.494,1.52,1.466,1.466,0,0,1-1.2.646H3.059a1.479,1.479,0,0,1-1.2-.627,2.441,2.441,0,0,1-.513-1.5V-10.716H.342A.334.334,0,0,1,.1-10.811a.334.334,0,0,1-.1-.247v-.684a.334.334,0,0,1,.1-.247.334.334,0,0,1,.247-.1H3.61l.741-1.767a1.477,1.477,0,0,1,.589-.665,1.694,1.694,0,0,1,.836-.285H9.158a1.417,1.417,0,0,1,.836.285,1.659,1.659,0,0,1,.57.665l.741,1.767h3.287a.334.334,0,0,1,.247.1A.334.334,0,0,1,14.934-11.742Z" transform="translate(0 14.801)" fill="#fff"/>
</svg>
