<svg xmlns="http://www.w3.org/2000/svg" xmlns:xlink="http://www.w3.org/1999/xlink" width="130" height="14" viewBox="0 0 130 14">
  <defs>
    <clipPath id="clip-path">
      <rect id="사각형_" data-name="사각형 " width="130" height="14" transform="translate(0 -0.215)" fill="none"/>
    </clipPath>
  </defs>
  <g id="로고" transform="translate(0 0.215)" clip-path="url(#clip-path)">
    <path id="패스_" data-name="패스 " d="M28.709,18.91a1.712,1.712,0,0,1-.815-.2,1.563,1.563,0,0,1-.6-.538,1.3,1.3,0,0,1-.212-.737A1.284,1.284,0,0,1,27.3,16.7a1.577,1.577,0,0,1,.6-.535,1.719,1.719,0,0,1,.815-.2,1.665,1.665,0,0,1,.8.2,1.647,1.647,0,0,1,.6.535,1.329,1.329,0,0,1,.232.733,1.351,1.351,0,0,1-.229.735,1.63,1.63,0,0,1-.6.538,1.665,1.665,0,0,1-.8.2" transform="translate(-9.66 -5.771)" fill="#fff"/>
    <path id="패스_2" data-name="패스 " d="M35.7.5h3.593l3.893,8.634h.165L47.246.5h3.586v12.74H48.012V4.9h-.123l-3.654,8.285H42.3L38.638,4.866h-.109v8.372H35.7Z" transform="translate(-12.732 -0.254)" fill="#fff"/>
    <path id="패스_3" data-name="패스 " d="M75.483,6.772a6.914,6.914,0,0,1-.852,3.508,5.7,5.7,0,0,1-2.34,2.258,7.642,7.642,0,0,1-6.723,0,5.7,5.7,0,0,1-2.333-2.261,6.918,6.918,0,0,1-.849-3.5,6.931,6.931,0,0,1,.849-3.508,5.683,5.683,0,0,1,2.333-2.258,7.659,7.659,0,0,1,6.723,0,5.7,5.7,0,0,1,2.34,2.258,6.912,6.912,0,0,1,.852,3.508m-2.949,0a5.361,5.361,0,0,0-.441-2.286A3.178,3.178,0,0,0,70.84,3.058a3.979,3.979,0,0,0-3.808,0,3.191,3.191,0,0,0-1.249,1.428,5.361,5.361,0,0,0-.441,2.286,5.363,5.363,0,0,0,.441,2.286,3.2,3.2,0,0,0,1.249,1.428,3.979,3.979,0,0,0,3.808,0,3.185,3.185,0,0,0,1.252-1.428,5.363,5.363,0,0,0,.441-2.286" transform="translate(-22.248 -0.158)" fill="#fff"/>
    <path id="패스_4" data-name="패스 " d="M97.595.5v12.74H95.077L88.919,5.146h-.11v8.092H85.9V.5H88.46l6.117,8.087H94.7V.5Z" transform="translate(-30.634 -0.254)" fill="#fff"/>
    <path id="패스_5" data-name="패스 " d="M120.067,8.746a1.283,1.283,0,0,0-.5-.787,1.746,1.746,0,0,0-1.048-.285,2.1,2.1,0,0,0-.8.147,1.408,1.408,0,0,0-.563.394.854.854,0,0,0-.2.558.79.79,0,0,0,.309.626,2.371,2.371,0,0,0,.976.413l1.306.3a3.451,3.451,0,0,1,1.682.807,1.9,1.9,0,0,1,.553,1.41,2.254,2.254,0,0,1-.4,1.32,2.6,2.6,0,0,1-1.157.9,5.181,5.181,0,0,1-3.472.04,2.582,2.582,0,0,1-1.128-.818,2.669,2.669,0,0,1-.517-1.307h1.653a1.208,1.208,0,0,0,.52.837,2.045,2.045,0,0,0,1.143.277,2.67,2.67,0,0,0,.9-.138,1.373,1.373,0,0,0,.6-.392.891.891,0,0,0,.213-.589.819.819,0,0,0-.309-.658,2.315,2.315,0,0,0-.96-.409l-1.274-.282a3.3,3.3,0,0,1-1.677-.816,1.927,1.927,0,0,1-.567-1.429,2.155,2.155,0,0,1,.4-1.28,2.584,2.584,0,0,1,1.114-.869,4.154,4.154,0,0,1,1.655-.309,4.02,4.02,0,0,1,1.576.288,2.53,2.53,0,0,1,1.072.816,2.47,2.47,0,0,1,.466,1.237Z" transform="translate(-41.044 -2.361)" fill="#454648"/>
    <path id="패스_6" data-name="패스 " d="M131.515,14.866a3.792,3.792,0,0,1-2.012-.528,3.53,3.53,0,0,1-1.341-1.485,4.912,4.912,0,0,1-.475-2.21,4.952,4.952,0,0,1,.475-2.224A3.53,3.53,0,0,1,129.5,6.933a4.092,4.092,0,0,1,4.02,0,3.5,3.5,0,0,1,1.338,1.487,4.969,4.969,0,0,1,.472,2.224,4.929,4.929,0,0,1-.472,2.21,3.5,3.5,0,0,1-1.338,1.485,3.778,3.778,0,0,1-2.007.528m.006-1.343a1.906,1.906,0,0,0,1.208-.384,2.3,2.3,0,0,0,.738-1.04,4.143,4.143,0,0,0,.246-1.46,4.146,4.146,0,0,0-.246-1.461,2.331,2.331,0,0,0-.738-1.045,1.887,1.887,0,0,0-1.208-.389,1.924,1.924,0,0,0-1.224.389,2.323,2.323,0,0,0-.744,1.045,4.146,4.146,0,0,0-.244,1.461,4.143,4.143,0,0,0,.244,1.46,2.29,2.29,0,0,0,.744,1.04,1.944,1.944,0,0,0,1.224.384" transform="translate(-45.536 -2.361)" fill="#454648"/>
    <rect id="사각형_2" data-name="사각형 " width="1.61" height="10.919" transform="translate(91.614 1.421)" fill="#454648"/>
    <path id="패스_7" data-name="패스 " d="M153.495,11.359V6.571h1.6v8.19h-1.572V13.343h-.086a2.528,2.528,0,0,1-.536.794,2.375,2.375,0,0,1-.829.539,2.908,2.908,0,0,1-1.083.192,2.743,2.743,0,0,1-1.407-.355,2.389,2.389,0,0,1-.947-1.051,3.823,3.823,0,0,1-.338-1.682V6.571h1.61v5.012a2.118,2.118,0,0,0,.208.962,1.513,1.513,0,0,0,.587.637,1.674,1.674,0,0,0,.869.224,1.977,1.977,0,0,0,.917-.229,1.837,1.837,0,0,0,.725-.693,2.129,2.129,0,0,0,.282-1.125" transform="translate(-52.886 -2.42)" fill="#454648"/>
    <path id="패스_8" data-name="패스 " d="M166.208,6.768h-4.479V5.483h4.479Zm-3.279-3.247h1.61v7.742a1.44,1.44,0,0,0,.128.674.7.7,0,0,0,.341.328,1.306,1.306,0,0,0,.512.091c.085,0,.182,0,.29-.005s.214-.009.318-.016l.1-.008.091,0V13.71a6.4,6.4,0,0,1-1,.069,2.923,2.923,0,0,1-1.2-.243,1.967,1.967,0,0,1-.869-.735,2.156,2.156,0,0,1-.323-1.208Z" transform="translate(-57.676 -1.332)" fill="#454648"/>
    <path id="패스_9" data-name="패스 " d="M172.185,3.556a1.029,1.029,0,0,1-.511-.131,1,1,0,0,1-.371-.349.879.879,0,0,1-.136-.474.892.892,0,0,1,.136-.48.986.986,0,0,1,.371-.347,1.054,1.054,0,0,1,.511-.127,1.035,1.035,0,0,1,.5.127.982.982,0,0,1,.371.347.893.893,0,0,1,.136.48.879.879,0,0,1-.136.474.993.993,0,0,1-.371.349,1.01,1.01,0,0,1-.5.131m-.816,1.258h1.61V13h-1.61Z" transform="translate(-61.042 -0.664)" fill="#454648"/>
    <path id="패스_10" data-name="패스 " d="M180.638,14.866a3.792,3.792,0,0,1-2.013-.528,3.535,3.535,0,0,1-1.341-1.485,4.912,4.912,0,0,1-.474-2.21,4.952,4.952,0,0,1,.474-2.224,3.534,3.534,0,0,1,1.341-1.487,4.094,4.094,0,0,1,4.02,0,3.512,3.512,0,0,1,1.338,1.487,4.969,4.969,0,0,1,.472,2.224,4.929,4.929,0,0,1-.472,2.21,3.513,3.513,0,0,1-1.338,1.485,3.781,3.781,0,0,1-2.007.528m.005-1.343a1.906,1.906,0,0,0,1.208-.384,2.3,2.3,0,0,0,.739-1.04,4.142,4.142,0,0,0,.245-1.46,4.146,4.146,0,0,0-.245-1.461,2.332,2.332,0,0,0-.739-1.045,1.887,1.887,0,0,0-1.208-.389,1.923,1.923,0,0,0-1.223.389,2.318,2.318,0,0,0-.744,1.045,4.146,4.146,0,0,0-.245,1.461,4.142,4.142,0,0,0,.245,1.46,2.285,2.285,0,0,0,.744,1.04,1.943,1.943,0,0,0,1.223.384" transform="translate(-63.055 -2.361)" fill="#454648"/>
    <path id="패스_11" data-name="패스 " d="M192.648,9.844V14.7h-1.61V6.511h1.546V7.849h.1a2.464,2.464,0,0,1,.531-.768,2.261,2.261,0,0,1,.807-.5,3.091,3.091,0,0,1,1.078-.176,2.946,2.946,0,0,1,1.471.355,2.376,2.376,0,0,1,.972,1.047,3.757,3.757,0,0,1,.344,1.685V14.7h-1.61V9.689a2.3,2.3,0,0,0-.208-1.016,1.475,1.475,0,0,0-.594-.653,1.813,1.813,0,0,0-.925-.224,1.952,1.952,0,0,0-.986.243,1.708,1.708,0,0,0-.672.7,2.315,2.315,0,0,0-.245,1.1" transform="translate(-68.129 -2.361)" fill="#454648"/>
    <path id="패스_12" data-name="패스 " d="M11.543.5,7.65,9.133H7.486L3.592.5H0v12.74H2.826V4.866h.109L6.6,13.183H8.533L12.187,4.9h.123v8.341H15.13V.5Z" transform="translate(0 -0.254)" fill="#fff"/>
  </g>
</svg>
